<svg xmlns="http://www.w3.org/2000/svg" viewBox="0 0 920 520" role="img" aria-labelledby="title desc">
  <title id="title">Acuracia por classe ABC</title>
  <desc id="desc">FA por classe ABC, mostrando Fornecedor 01 liderando em A, B e C.</desc>
  <rect width="920" height="520" fill="#ffffff"/>
  <text x="52" y="48" font-family="Inter, Segoe UI, Arial, sans-serif" font-size="25" font-weight="700" fill="#172033">FA por Classe ABC</text>
  <text x="52" y="78" font-family="Inter, Segoe UI, Arial, sans-serif" font-size="14" fill="#667085">Classe A concentra criticidade: erro aqui pesa mais na decisao</text>
  <line x1="80" y1="410" x2="850" y2="410" stroke="#98a2b3"/>
  <g font-family="Inter, Segoe UI, Arial, sans-serif" font-size="13" fill="#667085">
    <text x="146" y="442" text-anchor="middle">A</text>
    <text x="330" y="442" text-anchor="middle">B</text>
    <text x="514" y="442" text-anchor="middle">C</text>
    <text x="698" y="442" text-anchor="middle">D</text>
  </g>
  <g>
    <rect x="92" y="234" width="42" height="176" rx="4" fill="#2f80ed"/><rect x="140" y="306" width="42" height="104" rx="4" fill="#f59e0b"/><rect x="188" y="410" width="42" height="0" rx="4" fill="#12b76a"/>
    <rect x="276" y="222" width="42" height="188" rx="4" fill="#2f80ed"/><rect x="324" y="310" width="42" height="100" rx="4" fill="#f59e0b"/><rect x="372" y="378" width="42" height="32" rx="4" fill="#12b76a"/>
    <rect x="460" y="218" width="42" height="192" rx="4" fill="#2f80ed"/><rect x="508" y="282" width="42" height="128" rx="4" fill="#f59e0b"/><rect x="556" y="390" width="42" height="20" rx="4" fill="#12b76a"/>
    <rect x="644" y="270" width="42" height="140" rx="4" fill="#2f80ed"/><rect x="692" y="270" width="42" height="140" rx="4" fill="#f59e0b"/><rect x="740" y="282" width="42" height="128" rx="4" fill="#12b76a"/>
  </g>
  <g font-family="Inter, Segoe UI, Arial, sans-serif" font-size="12" font-weight="700" fill="#172033">
    <text x="113" y="222" text-anchor="middle">44%</text><text x="161" y="294" text-anchor="middle">26%</text><text x="209" y="396" text-anchor="middle">0%</text>
    <text x="297" y="210" text-anchor="middle">47%</text><text x="345" y="298" text-anchor="middle">25%</text><text x="393" y="366" text-anchor="middle">8%</text>
    <text x="481" y="206" text-anchor="middle">48%</text><text x="529" y="270" text-anchor="middle">32%</text><text x="577" y="378" text-anchor="middle">5%</text>
    <text x="665" y="258" text-anchor="middle">35%</text><text x="713" y="258" text-anchor="middle">35%</text><text x="761" y="270" text-anchor="middle">32%</text>
  </g>
  <g font-family="Inter, Segoe UI, Arial, sans-serif" font-size="13" fill="#475467">
    <rect x="588" y="104" width="16" height="16" fill="#2f80ed" rx="3"/><text x="612" y="117">Forn. 01</text>
    <rect x="680" y="104" width="16" height="16" fill="#f59e0b" rx="3"/><text x="704" y="117">Forn. 02</text>
    <rect x="772" y="104" width="16" height="16" fill="#12b76a" rx="3"/><text x="796" y="117">Forn. 03</text>
  </g>
</svg>
